<?xml version="1.0" encoding="UTF-8"?>
<svg xmlns="http://www.w3.org/2000/svg" xmlns:xlink="http://www.w3.org/1999/xlink" width="128" height="128" viewBox="0 0 128 128" version="1.1">
<g id="surface1">
<path style=" stroke:none;fill-rule:nonzero;fill:rgb(0%,0%,0%);fill-opacity:1;" d="M 94.078125 0.480469 C 91.199219 0.640625 88.320312 0.960938 85.601562 1.921875 C 81.28125 3.519531 77.121094 5.921875 73.601562 9.441406 C 70.828125 11.199219 69.410156 14.46875 70.023438 17.695312 C 70.640625 20.917969 73.160156 23.441406 76.386719 24.054688 C 79.609375 24.667969 82.882812 23.253906 84.640625 20.480469 C 86.398438 18.71875 88.480469 17.761719 90.71875 16.960938 C 96.320312 15.039062 103.199219 15.839844 107.679688 20.480469 C 113.921875 26.71875 113.921875 37.121094 107.679688 43.519531 L 83.679688 67.519531 C 76.640625 74.558594 70.878906 75.199219 66.71875 75.039062 C 62.558594 74.878906 60.160156 72.960938 60.160156 72.960938 C 56.273438 70.75 51.328125 72.113281 49.121094 76 C 46.910156 79.886719 48.273438 84.832031 52.160156 87.039062 C 52.160156 87.039062 57.601562 90.558594 65.601562 91.039062 C 73.601562 91.519531 84.800781 88.480469 94.558594 78.558594 L 118.558594 54.558594 C 131.039062 42.078125 131.039062 21.921875 118.558594 9.601562 C 114.078125 5.121094 108.800781 2.398438 103.039062 1.121094 C 100.160156 0.480469 96.960938 0.480469 94.078125 0.640625 Z M 62.078125 37.441406 C 54.078125 37.121094 43.039062 39.839844 33.601562 49.441406 L 9.601562 73.441406 C -2.878906 85.921875 -2.878906 106.078125 9.601562 118.398438 C 18.558594 127.359375 31.359375 129.921875 42.558594 125.921875 C 46.878906 124.320312 51.039062 121.921875 54.558594 118.398438 C 57.332031 116.640625 58.75 113.371094 58.136719 110.144531 C 57.519531 106.921875 55 104.398438 51.773438 103.785156 C 48.550781 103.171875 45.277344 104.585938 43.519531 107.359375 C 41.761719 109.121094 39.679688 110.078125 37.441406 110.878906 C 31.839844 112.800781 24.960938 112 20.480469 107.359375 C 14.238281 101.121094 14.238281 90.71875 20.480469 84.320312 L 44.480469 60.320312 C 50.878906 53.921875 56.480469 53.121094 60.960938 53.28125 C 65.441406 53.441406 68.480469 54.71875 68.480469 54.71875 C 71.042969 56.640625 74.503906 56.851562 77.28125 55.25 C 80.054688 53.644531 81.605469 50.542969 81.222656 47.363281 C 80.839844 44.183594 78.59375 41.535156 75.519531 40.640625 C 75.519531 40.640625 70.078125 37.441406 62.078125 37.121094 Z M 62.078125 37.441406 "
	fill="white"/>
</g>
</svg>
